{"title":"Pixels.2015.CAM.x264-MenaceIISociety","uid":12175447,"size":801538529,"categoryP":"video","categoryS":"movies","magnet":"?xt=urn:btih:0d1c6c419426026af8cb424be81084f58d1c37af&amp;dn=Pixels.2015.CAM.x264-MenaceIISociety&amp;tr=udp%3A%2F%2Ftracker.openbittorrent.com%3A80&amp;tr=udp%3A%2F%2Fopen.demonii.com%3A1337&amp;tr=udp%3A%2F%2Ftracker.coppersurfer.tk%3A6969&amp;tr=udp%3A%2F%2Fexodus.desync.com%3A6969","seeders":0,"leechers":1,"uploader":"TvTeam","files":4,"time":1438301996,"description":"------------------------------------------------------------------------\n\n &lt;a href=&quot; https://www.torrenting.com&quot; rel=&quot;nofollow&quot; target=&quot;_NEW&quot;&gt; https://www.torrenting.com&lt;/a&gt;\n\nSign up is OPEN - for time being. Come and have fun\n\n.......................................................................................................................[img]http://s3.postimg.org/e4ew9u9sz/pixels_poster.jpg[/img]\n\nPixels.2015.CAM.x264-MenaceIISociety &lt;a href=&quot;\nhttp://www.imdb.com/title/tt2120120/&quot; rel=&quot;nofollow&quot; target=&quot;_NEW&quot;&gt;\nhttp://www.imdb.com/title/tt2120120/&lt;/a&gt;\n\nSource: NEW.HDCAM-MRG [THANKS]\n\nNOTE: whats HD about it ?? anyways it has English audio, resized to fix the AR as it was wrong on the source, adjusted some gain, coef, lum, and gamma_y, enjoy. \n\nGeneral\nComplete name                            : Pixels.2015.CAM.x264-MenaceIISociety.mp4\nFormat                                   : MPEG-4\nFormat profile                           : Base Media\nCodec ID                                 : isom\nFile size                                : 747 MiB\nDuration                                 : 1h 41mn\nOverall bit rate mode                    : Variable\nOverall bit rate                         : 1 031 Kbps\nEncoded date                             : UTC 2015-07-28 13:48:33\nTagged date                              : UTC 2015-07-28 13:48:33\n\nVideo\nID                                       : 1\nFormat                                   : AVC\nFormat/Info                              : Advanced Video Codec\nFormat profile                           : &lt;a class=&quot;__cf_email__&quot; href=&quot;/cdn-cgi/l/email-protection&quot; data-cfemail=&quot;f3bb9a949bb3bfc7ddc2&quot;&gt;[email&amp;#160;protected]&lt;/a&gt;&lt;script data-cfhash='f9e31' type=&quot;text/javascript&quot;&gt;\n/* &lt;![CDATA[ */!function(){try{var t=&quot;currentScript&quot;in document?document.currentScript:function(){for(var t=document.getElementsByTagName(&quot;script&quot;),e=t.length;e--;)if(t[e].getAttribute(&quot;data-cfhash&quot;))return t[e]}();if(t&amp;&amp;t.previousSibling){var e,r,n,i,c=t.previousSibling,a=c.getAttribute(&quot;data-cfemail&quot;);if(a){for(e=&quot;&quot;,r=parseInt(a.substr(0,2),16),n=2;a.length-n;n+=2)i=parseInt(a.substr(n,2),16)^r,e+=String.fromCharCode(i);e=document.createTextNode(e),c.parentNode.replaceChild(e,c)}t.parentNode.removeChild(t);}}catch(u){}}()/* ]]&gt; */&lt;/script&gt;\nFormat settings, CABAC                   : Yes\nFormat settings, ReFrames                : 3 frames\nCodec ID                                 : avc1\nCodec ID/Info                            : Advanced Video Coding\nDuration                                 : 1h 41mn\nBit rate mode                            : Variable\nBit rate                                 : 938 Kbps\nMaximum bit rate                         : 40.0 Mbps\nWidth                                    : 640 pixels\nHeight                                   : 274 pixels\nDisplay aspect ratio                     : 2.35:1\nFrame rate mode                          : Constant\nFrame rate                               : 25.000 fps\nColor space                              : YUV\nChroma subsampling                       : 4:2:0\nBit depth                                : 8 bits\nScan type                                : Progressive\nBits/(Pixel*Frame)                       : 0.214\nStream size                              : 679 MiB (91%)\nWriting library                          : x264 core 146 r2538 121396c\n\nAudio\nID                                       : 2\nFormat                                   : AAC\nFormat/Info                              : Advanced Audio Codec\nFormat profile                           : LC\nCodec ID                                 : 40\nDuration                                 : 1h 41mn\nBit rate mode                            : Variable\nBit rate                                 : 89.1 Kbps\nMaximum bit rate                         : 97.2 Kbps\nChannel(s)                               : 2 channels\nChannel positions                        : Front: L R\nSampling rate                            : 44.1 KHz\nCompression mode                         : Lossy\nStream size                              : 64.6 MiB (9%)\nEncoded date                             : UTC 2015-07-28 12:51:04\nTagged date                              : UTC 2015-07-28 13:49:29\n\n[img]http://s22.postimg.org/de40flp5d/vlcsnap_2015_07_28_15h52m01s085.jpg[/img] \n[img]http://s22.postimg.org/98xp7fgr5/vlcsnap_2015_07_28_15h54m42s780.jpg[/img] \n[img]http://s22.postimg.org/h5i6fns7l/vlcsnap_2015_07_28_15h55m35s222.jpg[/img] \n[img]http://s22.postimg.org/yg8l7ojv5/vlcsnap_2015_07_28_15h57m59s949.jpg[/img] \n[img]http://s22.postimg.org/72ysz6nwx/vlcsnap_2015_07_28_15h58m12s871.jpg[/img] \n[img]http://s22.postimg.org/ufwuhp40h/vlcsnap_2015_07_28_15h58m49s581.jpg[/img] \n[img]http://s22.postimg.org/n55xjbd01/vlcsnap_2015_07_28_15h59m04s833.jpg[/img] \n[img]http://s22.postimg.org/f27r7zsep/vlcsnap_2015_07_28_15h59m22s704.jpg[/img] \n[img]http://s22.postimg.org/58qjv6qa9/vlcsnap_2015_07_28_15h59m33s065.jpg[/img] \n[img]http://s22.postimg.org/dcynzxcpd/vlcsnap_2015_07_28_16h00m41s245.jpg[/img] \n[img]http://s22.postimg.org/5vpgkpn69/vlcsnap_2015_07_28_16h01m32s913.jpg[/img] \n[img]http://s22.postimg.org/o3mallqc1/vlcsnap_2015_07_28_16h02m08s462.jpg[/img] \n[img]http://s22.postimg.org/96dtkld3l/vlcsnap_2015_07_28_16h03m02s718.jpg[/img] \n[img]http://s22.postimg.org/n411n0hht/vlcsnap_2015_07_28_16h03m24s934.jpg[/img] \n[img]http://s22.postimg.org/kwwsz3c7l/vlcsnap_2015_07_28_16h03m38s583.jpg[/img] \n[img]http://s22.postimg.org/yrv3hk6mp/vlcsnap_2015_07_28_16h04m53s413.jpg[/img] \n[img]http://s22.postimg.org/l0qmfchox/vlcsnap_2015_07_28_16h05m00s716.jpg[/img] \n\n[img]http://s17.postimg.org/r1iiyw8yn/Untitled_1.png[/img]","torrent":{"xt":"urn:btih:0d1c6c419426026af8cb424be81084f58d1c37af","amp;dn":"Pixels.2015.CAM.x264-MenaceIISociety","amp;tr":["udp%3A%2F%2Ftracker.openbittorrent.com%3A80","udp%3A%2F%2Fopen.demonii.com%3A1337","udp%3A%2F%2Ftracker.coppersurfer.tk%3A6969","udp%3A%2F%2Fexodus.desync.com%3A6969"],"infoHash":"0d1c6c419426026af8cb424be81084f58d1c37af","infoHashBuffer":{"type":"Buffer","data":[13,28,108,65,148,38,2,106,248,203,66,75,232,16,132,245,141,28,55,175]},"announce":[],"urlList":[]}}